<svg xmlns="http://www.w3.org/2000/svg" viewBox="0 0 360 128" preserveAspectRatio="xMidYMid meet">
  <title>WinLoop horizontal logo lockup</title>
  <style type="text/css">.cls-0 {fill:#2E3943;}
.cls-1 {fill:#38B1F5;}</style>
  <svg x="8" y="21" width="108" height="82" viewBox="0 0 128 92" preserveAspectRatio="xMidYMid meet">
  <path class="cls-1" d="m76.8 26.6c-1.5-2.5-3.7-4.9-6.5-6.8l-4.2 8.4c1.4 1.2 2.5 2.8 3.1 4l2.1 4.2 5.5-9.8z"/>
  <path class="cls-1" d="m81.6 59.8c1.1 0.6 3.7 1.2 3.7 1.2l3.8-7.1-7.6-16.6-5.4 10.6 5.5 11.9z"/>
  <path class="cls-1" d="m104.3 2.5c-6.2 0-14.2 2.4-19.9 10.3-1.7 2.5-3.8 6.5-5.6 9.9 2.5 0.7 6.4 2.7 8.6 4.1l4.4-8c1.8-3.3 5.6-7.1 11.4-7.3 5.2-0.6 13.5 3.2 13.8 11.2 0.1 2.1-0.2 3.8-0.8 5.6l7.5 5.5c1.4-3.4 2.5-7.6 1.8-13.1-1-8.4-9-18.2-21.2-18.2z"/>
  <path class="cls-0" d="m105.3 25.7c-3.4 0-6.8 0.8-10.6 3-2.9 1.8-5.6 4.6-7.1 7.7l-3.7 6.2 5.2 11.3 6.6-13.2c1.2-2.4 2.7-3.6 4.6-4.7 3-1.8 7.5-2.5 12.3 0.4l-17.5 35c-1.5 3-4.9 6.6-10.7 6.6-5.7 0-8.4-3.9-9.8-6.2l-4-7.4-5.3 10.1c3.8 8.6 11.1 13 19 13 2.1 0 5.1-0.4 6.6-0.9 6.2-2.1 10.1-6 12.2-10.3l19.4-39.9 1.1-2.6c-2-2.4-9.1-8.1-18.3-8.1z"/>
  <path class="cls-0" d="m70.3 19.7c-2.6-1.7-5.7-3.2-10-3.2-8.8 0-16.3 6.3-18.3 15.3l7.1 15.1c1.9-2.5 3.7-5.5 3.1-9.2-0.6-1.6-1.2-4.8 0.4-7.2 1.6-2.6 4.5-4.5 7.3-4.5 2.3 0 4.3 0.7 6.2 2.2 1.3-1.6 3.5-5.8 4.2-8.5z"/>
  <path class="cls-0" d="m78.8 22.7-25.4 48.9c-1.6 2.8-5 6.4-10.5 6.4-5.1 0-8.6-3.2-10.4-6.6l-20.6-42.6c-1-2.7-1.3-5.7 1.8-8.2s8.1-2.1 10.4 2.9l17.9 37.5 8.8-3.7-17.9-37.3c-2.1-3.8-5.4-7.7-10.3-9.4-4.9-1.5-9.5-0.8-12.7 1-6.8 4-9.9 10.7-7 19.6l21.3 44.6c2.1 4.3 5.7 8 10.4 9.9 2.4 1 5.1 1.7 8.3 1.8 7.3 0 13.8-3.5 17.9-9.9l1.2-2.2 25.4-48.6c-2.3-1.4-5.8-3.2-8.6-4.1z"/>
  </svg>
  <svg x="136" y="38" width="208" height="52" viewBox="0 96 128 32" preserveAspectRatio="xMidYMid meet">
  <path class="cls-0" d="m32.1 101.8-6.3 18.6h-4.1l-4.4-13.6-4.5 13.6h-3.9l-5.7-18.6h3.4l4.2 14.2 4.9-14.2h3.3l4.7 14.4 4.8-14.4h3.6z"/>
  <path class="cls-0" d="m38.3 102c0 1-0.8 2-2.2 2-1.3 0-2.2-0.8-2.2-2 0-1.1 0.9-1.9 2.2-1.9s2.2 0.9 2.2 1.9zm-4 4.2h3.5v14.2h-3.5v-14.2z"/>
  <path class="cls-0" d="m56.5 112.1v8.3h-3.4v-7.5c0-2.5-1.1-3.7-3.3-3.7-2.4 0-4 1.4-4.1 3.9v7.3h-3.5v-14.3l3.4 0.1v1.9c1.1-1.2 2.8-2 5-2 3.3 0 5.9 1.7 5.9 6z"/>
  <path class="cls-0" d="m74 117.6v2.8h-13.2v-18.6h3.5v15.8h9.7z"/>
  <path class="cls-0" d="m75.4 113.4c0-3.9 3.1-7.2 7.4-7.2 4.4 0 7.8 2.9 7.8 7.2 0 4-3 7.2-7.6 7.2s-7.6-2.8-7.6-7.2zm11.9 0.1c0-2.6-1.6-4.5-4.2-4.5s-4.3 1.7-4.3 4.5c0 2.5 1.7 4.3 4.1 4.3 2.7 0 4.4-1.7 4.4-4.3z"/>
  <path class="cls-0" d="m92.7 113.6c0-3.9 2.9-7.5 7.2-7.5 4.6 0 8.2 2.8 8.2 7.5 0 3.9-3 7-7.7 7-4.6 0-7.7-2.9-7.7-7zm11.8 0c0-2.6-1.6-4.5-4.2-4.5s-4.2 1.7-4.2 4.4c0 2.5 1.6 4.3 4.1 4.3 2.6 0 4.3-1.7 4.3-4.2z"/>
  <path class="cls-0" d="m125.8 113.5c0.3 4-2.7 7.1-6.6 7.1-1.9 0-3.5-0.5-4.4-1.6l0.1 6.9h-3.6v-19.7h3.4v1.7c1-1.1 2.5-1.8 4.4-1.8 4 0 6.8 2.8 6.8 6.5l-0.1 0.9zm-3.3 0c0.1-2.5-1.6-4.5-4.1-4.5-2.4-0.1-3.7 2-3.7 3.9v0.6c0 2.1 1.5 4.3 4 4.3 2.3 0 3.9-1.7 3.9-3.9l-0.1-0.4z"/>
  </svg>
</svg>
