<svg xmlns="http://www.w3.org/2000/svg" viewBox="0 0 128 128" preserveAspectRatio="xMidYMid meet">
  <title>WinLoop logo mark</title>
  <style type="text/css">.cls-0 {fill:#2E3943;}
.cls-1 {fill:#38B1F5;}</style>
  <svg x="4" y="18" width="120" height="92" viewBox="0 0 128 92" preserveAspectRatio="xMidYMid meet">
  <path class="cls-1" d="m76.8 26.6c-1.5-2.5-3.7-4.9-6.5-6.8l-4.2 8.4c1.4 1.2 2.5 2.8 3.1 4l2.1 4.2 5.5-9.8z"/>
  <path class="cls-1" d="m81.6 59.8c1.1 0.6 3.7 1.2 3.7 1.2l3.8-7.1-7.6-16.6-5.4 10.6 5.5 11.9z"/>
  <path class="cls-1" d="m104.3 2.5c-6.2 0-14.2 2.4-19.9 10.3-1.7 2.5-3.8 6.5-5.6 9.9 2.5 0.7 6.4 2.7 8.6 4.1l4.4-8c1.8-3.3 5.6-7.1 11.4-7.3 5.2-0.6 13.5 3.2 13.8 11.2 0.1 2.1-0.2 3.8-0.8 5.6l7.5 5.5c1.4-3.4 2.5-7.6 1.8-13.1-1-8.4-9-18.2-21.2-18.2z"/>
  <path class="cls-0" d="m105.3 25.7c-3.4 0-6.8 0.8-10.6 3-2.9 1.8-5.6 4.6-7.1 7.7l-3.7 6.2 5.2 11.3 6.6-13.2c1.2-2.4 2.7-3.6 4.6-4.7 3-1.8 7.5-2.5 12.3 0.4l-17.5 35c-1.5 3-4.9 6.6-10.7 6.6-5.7 0-8.4-3.9-9.8-6.2l-4-7.4-5.3 10.1c3.8 8.6 11.1 13 19 13 2.1 0 5.1-0.4 6.6-0.9 6.2-2.1 10.1-6 12.2-10.3l19.4-39.9 1.1-2.6c-2-2.4-9.1-8.1-18.3-8.1z"/>
  <path class="cls-0" d="m70.3 19.7c-2.6-1.7-5.7-3.2-10-3.2-8.8 0-16.3 6.3-18.3 15.3l7.1 15.1c1.9-2.5 3.7-5.5 3.1-9.2-0.6-1.6-1.2-4.8 0.4-7.2 1.6-2.6 4.5-4.5 7.3-4.5 2.3 0 4.3 0.7 6.2 2.2 1.3-1.6 3.5-5.8 4.2-8.5z"/>
  <path class="cls-0" d="m78.8 22.7-25.4 48.9c-1.6 2.8-5 6.4-10.5 6.4-5.1 0-8.6-3.2-10.4-6.6l-20.6-42.6c-1-2.7-1.3-5.7 1.8-8.2s8.1-2.1 10.4 2.9l17.9 37.5 8.8-3.7-17.9-37.3c-2.1-3.8-5.4-7.7-10.3-9.4-4.9-1.5-9.5-0.8-12.7 1-6.8 4-9.9 10.7-7 19.6l21.3 44.6c2.1 4.3 5.7 8 10.4 9.9 2.4 1 5.1 1.7 8.3 1.8 7.3 0 13.8-3.5 17.9-9.9l1.2-2.2 25.4-48.6c-2.3-1.4-5.8-3.2-8.6-4.1z"/>
  </svg>
</svg>
