<svg xmlns="http://www.w3.org/2000/svg" viewBox="0 0 512 128" preserveAspectRatio="xMidYMid meet">
  <title>WinLoop wordmark</title>
  <style type="text/css">.cls-0 {fill:#2E3943;}
.cls-1 {fill:#38B1F5;}</style>
  <svg x="0" y="0" width="512" height="128" viewBox="0 96 128 32" preserveAspectRatio="xMidYMid meet">
  <path class="cls-0" d="m32.1 101.8-6.3 18.6h-4.1l-4.4-13.6-4.5 13.6h-3.9l-5.7-18.6h3.4l4.2 14.2 4.9-14.2h3.3l4.7 14.4 4.8-14.4h3.6z"/>
  <path class="cls-0" d="m38.3 102c0 1-0.8 2-2.2 2-1.3 0-2.2-0.8-2.2-2 0-1.1 0.9-1.9 2.2-1.9s2.2 0.9 2.2 1.9zm-4 4.2h3.5v14.2h-3.5v-14.2z"/>
  <path class="cls-0" d="m56.5 112.1v8.3h-3.4v-7.5c0-2.5-1.1-3.7-3.3-3.7-2.4 0-4 1.4-4.1 3.9v7.3h-3.5v-14.3l3.4 0.1v1.9c1.1-1.2 2.8-2 5-2 3.3 0 5.9 1.7 5.9 6z"/>
  <path class="cls-0" d="m74 117.6v2.8h-13.2v-18.6h3.5v15.8h9.7z"/>
  <path class="cls-0" d="m75.4 113.4c0-3.9 3.1-7.2 7.4-7.2 4.4 0 7.8 2.9 7.8 7.2 0 4-3 7.2-7.6 7.2s-7.6-2.8-7.6-7.2zm11.9 0.1c0-2.6-1.6-4.5-4.2-4.5s-4.3 1.7-4.3 4.5c0 2.5 1.7 4.3 4.1 4.3 2.7 0 4.4-1.7 4.4-4.3z"/>
  <path class="cls-0" d="m92.7 113.6c0-3.9 2.9-7.5 7.2-7.5 4.6 0 8.2 2.8 8.2 7.5 0 3.9-3 7-7.7 7-4.6 0-7.7-2.9-7.7-7zm11.8 0c0-2.6-1.6-4.5-4.2-4.5s-4.2 1.7-4.2 4.4c0 2.5 1.6 4.3 4.1 4.3 2.6 0 4.3-1.7 4.3-4.2z"/>
  <path class="cls-0" d="m125.8 113.5c0.3 4-2.7 7.1-6.6 7.1-1.9 0-3.5-0.5-4.4-1.6l0.1 6.9h-3.6v-19.7h3.4v1.7c1-1.1 2.5-1.8 4.4-1.8 4 0 6.8 2.8 6.8 6.5l-0.1 0.9zm-3.3 0c0.1-2.5-1.6-4.5-4.1-4.5-2.4-0.1-3.7 2-3.7 3.9v0.6c0 2.1 1.5 4.3 4 4.3 2.3 0 3.9-1.7 3.9-3.9l-0.1-0.4z"/>
  </svg>
</svg>
